<mxfile host="app.diagrams.net" modified="2022-01-07T10:34:44.066Z" agent="5.0 (Macintosh)" etag="kb3nRM1wndDoimHb1yp7" version="16.2.2" type="github">
  <diagram id="WLPjSBhgC_yvwsMOQwiV" name="Page-1">
    <mxGraphModel dx="1186" dy="651" grid="1" gridSize="10" guides="1" tooltips="1" connect="1" arrows="1" fold="1" page="1" pageScale="1" pageWidth="827" pageHeight="1169" math="0" shadow="0">
      <root>
        <mxCell id="0" />
        <mxCell id="1" parent="0" />
        <mxCell id="tNga97t6l0gy_Rezht0s-1" value="" style="shape=table;startSize=0;container=1;collapsible=0;childLayout=tableLayout;" parent="1" vertex="1">
          <mxGeometry x="110" y="210" width="2590" height="40" as="geometry" />
        </mxCell>
        <mxCell id="tNga97t6l0gy_Rezht0s-2" value="" style="shape=partialRectangle;collapsible=0;dropTarget=0;pointerEvents=0;fillColor=none;top=0;left=0;bottom=0;right=0;points=[[0,0.5],[1,0.5]];portConstraint=eastwest;" parent="tNga97t6l0gy_Rezht0s-1" vertex="1">
          <mxGeometry width="2590" height="40" as="geometry" />
        </mxCell>
        <mxCell id="tNga97t6l0gy_Rezht0s-3" value="&lt;b&gt;General maintenance&lt;/b&gt;" style="shape=partialRectangle;html=1;whiteSpace=wrap;connectable=0;overflow=hidden;fillColor=none;top=0;left=0;bottom=0;right=0;pointerEvents=1;" parent="tNga97t6l0gy_Rezht0s-2" vertex="1">
          <mxGeometry width="2590" height="40" as="geometry" />
        </mxCell>
        <mxCell id="tNga97t6l0gy_Rezht0s-16" value="" style="shape=table;startSize=0;container=1;collapsible=0;childLayout=tableLayout;" parent="1" vertex="1">
          <mxGeometry x="370" y="250" width="430" height="40" as="geometry" />
        </mxCell>
        <mxCell id="tNga97t6l0gy_Rezht0s-17" value="" style="shape=partialRectangle;collapsible=0;dropTarget=0;pointerEvents=0;fillColor=none;top=0;left=0;bottom=0;right=0;points=[[0,0.5],[1,0.5]];portConstraint=eastwest;" parent="tNga97t6l0gy_Rezht0s-16" vertex="1">
          <mxGeometry width="430" height="40" as="geometry" />
        </mxCell>
        <mxCell id="tNga97t6l0gy_Rezht0s-19" value="schedule of cleaning procedure" style="shape=partialRectangle;html=1;whiteSpace=wrap;connectable=0;overflow=hidden;fillColor=none;top=0;left=0;bottom=0;right=0;pointerEvents=1;" parent="tNga97t6l0gy_Rezht0s-17" vertex="1">
          <mxGeometry width="430" height="40" as="geometry" />
        </mxCell>
        <mxCell id="tNga97t6l0gy_Rezht0s-29" value="" style="shape=table;startSize=0;container=1;collapsible=0;childLayout=tableLayout;" parent="1" vertex="1">
          <mxGeometry x="370" y="290" width="150" height="40" as="geometry" />
        </mxCell>
        <mxCell id="tNga97t6l0gy_Rezht0s-30" value="" style="shape=partialRectangle;collapsible=0;dropTarget=0;pointerEvents=0;fillColor=none;top=0;left=0;bottom=0;right=0;points=[[0,0.5],[1,0.5]];portConstraint=eastwest;" parent="tNga97t6l0gy_Rezht0s-29" vertex="1">
          <mxGeometry width="150" height="40" as="geometry" />
        </mxCell>
        <mxCell id="tNga97t6l0gy_Rezht0s-31" value="predetermined intervals " style="shape=partialRectangle;html=1;whiteSpace=wrap;connectable=0;overflow=hidden;fillColor=none;top=0;left=0;bottom=0;right=0;pointerEvents=1;" parent="tNga97t6l0gy_Rezht0s-30" vertex="1">
          <mxGeometry width="150" height="40" as="geometry" />
        </mxCell>
        <mxCell id="tNga97t6l0gy_Rezht0s-32" value="" style="shape=table;startSize=0;container=1;collapsible=0;childLayout=tableLayout;" parent="1" vertex="1">
          <mxGeometry x="520" y="290" width="140" height="40" as="geometry" />
        </mxCell>
        <mxCell id="tNga97t6l0gy_Rezht0s-33" value="" style="shape=partialRectangle;collapsible=0;dropTarget=0;pointerEvents=0;fillColor=none;top=0;left=0;bottom=0;right=0;points=[[0,0.5],[1,0.5]];portConstraint=eastwest;" parent="tNga97t6l0gy_Rezht0s-32" vertex="1">
          <mxGeometry width="140" height="40" as="geometry" />
        </mxCell>
        <mxCell id="tNga97t6l0gy_Rezht0s-34" value="prescribed criteria" style="shape=partialRectangle;html=1;whiteSpace=wrap;connectable=0;overflow=hidden;fillColor=none;top=0;left=0;bottom=0;right=0;pointerEvents=1;" parent="tNga97t6l0gy_Rezht0s-33" vertex="1">
          <mxGeometry width="140" height="40" as="geometry" />
        </mxCell>
        <mxCell id="tNga97t6l0gy_Rezht0s-38" value="" style="shape=table;startSize=0;container=1;collapsible=0;childLayout=tableLayout;" parent="1" vertex="1">
          <mxGeometry x="660" y="290" width="140" height="40" as="geometry" />
        </mxCell>
        <mxCell id="tNga97t6l0gy_Rezht0s-39" value="" style="shape=partialRectangle;collapsible=0;dropTarget=0;pointerEvents=0;fillColor=none;top=0;left=0;bottom=0;right=0;points=[[0,0.5],[1,0.5]];portConstraint=eastwest;" parent="tNga97t6l0gy_Rezht0s-38" vertex="1">
          <mxGeometry width="140" height="40" as="geometry" />
        </mxCell>
        <mxCell id="tNga97t6l0gy_Rezht0s-40" value="periodic test activities " style="shape=partialRectangle;html=1;whiteSpace=wrap;connectable=0;overflow=hidden;fillColor=none;top=0;left=0;bottom=0;right=0;pointerEvents=1;" parent="tNga97t6l0gy_Rezht0s-39" vertex="1">
          <mxGeometry width="140" height="40" as="geometry" />
        </mxCell>
        <mxCell id="tNga97t6l0gy_Rezht0s-41" value="" style="shape=table;startSize=0;container=1;collapsible=0;childLayout=tableLayout;" parent="1" vertex="1">
          <mxGeometry x="110" y="250" width="260" height="80" as="geometry" />
        </mxCell>
        <mxCell id="tNga97t6l0gy_Rezht0s-42" value="" style="shape=partialRectangle;collapsible=0;dropTarget=0;pointerEvents=0;fillColor=none;top=0;left=0;bottom=0;right=0;points=[[0,0.5],[1,0.5]];portConstraint=eastwest;" parent="tNga97t6l0gy_Rezht0s-41" vertex="1">
          <mxGeometry width="260" height="80" as="geometry" />
        </mxCell>
        <mxCell id="tNga97t6l0gy_Rezht0s-43" value="Cleaning procedure" style="shape=partialRectangle;html=1;whiteSpace=wrap;connectable=0;overflow=hidden;fillColor=none;top=0;left=0;bottom=0;right=0;pointerEvents=1;" parent="tNga97t6l0gy_Rezht0s-42" vertex="1">
          <mxGeometry width="260" height="80" as="geometry" />
        </mxCell>
        <mxCell id="tNga97t6l0gy_Rezht0s-44" value="" style="shape=table;startSize=0;container=1;collapsible=0;childLayout=tableLayout;" parent="1" vertex="1">
          <mxGeometry x="800" y="250" width="260" height="80" as="geometry" />
        </mxCell>
        <mxCell id="tNga97t6l0gy_Rezht0s-45" value="" style="shape=partialRectangle;collapsible=0;dropTarget=0;pointerEvents=0;fillColor=none;top=0;left=0;bottom=0;right=0;points=[[0,0.5],[1,0.5]];portConstraint=eastwest;" parent="tNga97t6l0gy_Rezht0s-44" vertex="1">
          <mxGeometry width="260" height="80" as="geometry" />
        </mxCell>
        <mxCell id="tNga97t6l0gy_Rezht0s-46" value="Lubricating procedure" style="shape=partialRectangle;html=1;whiteSpace=wrap;connectable=0;overflow=hidden;fillColor=none;top=0;left=0;bottom=0;right=0;pointerEvents=1;" parent="tNga97t6l0gy_Rezht0s-45" vertex="1">
          <mxGeometry width="260" height="80" as="geometry" />
        </mxCell>
        <mxCell id="tNga97t6l0gy_Rezht0s-61" value="" style="shape=table;startSize=0;container=1;collapsible=0;childLayout=tableLayout;" parent="1" vertex="1">
          <mxGeometry x="1060" y="250" width="430" height="40" as="geometry" />
        </mxCell>
        <mxCell id="tNga97t6l0gy_Rezht0s-62" value="" style="shape=partialRectangle;collapsible=0;dropTarget=0;pointerEvents=0;fillColor=none;top=0;left=0;bottom=0;right=0;points=[[0,0.5],[1,0.5]];portConstraint=eastwest;" parent="tNga97t6l0gy_Rezht0s-61" vertex="1">
          <mxGeometry width="430" height="40" as="geometry" />
        </mxCell>
        <mxCell id="tNga97t6l0gy_Rezht0s-63" value="schedule Lubricating procedure" style="shape=partialRectangle;html=1;whiteSpace=wrap;connectable=0;overflow=hidden;fillColor=none;top=0;left=0;bottom=0;right=0;pointerEvents=1;" parent="tNga97t6l0gy_Rezht0s-62" vertex="1">
          <mxGeometry width="430" height="40" as="geometry" />
        </mxCell>
        <mxCell id="tNga97t6l0gy_Rezht0s-64" value="" style="shape=table;startSize=0;container=1;collapsible=0;childLayout=tableLayout;" parent="1" vertex="1">
          <mxGeometry x="1060" y="290" width="150" height="40" as="geometry" />
        </mxCell>
        <mxCell id="tNga97t6l0gy_Rezht0s-65" value="" style="shape=partialRectangle;collapsible=0;dropTarget=0;pointerEvents=0;fillColor=none;top=0;left=0;bottom=0;right=0;points=[[0,0.5],[1,0.5]];portConstraint=eastwest;" parent="tNga97t6l0gy_Rezht0s-64" vertex="1">
          <mxGeometry width="150" height="40" as="geometry" />
        </mxCell>
        <mxCell id="tNga97t6l0gy_Rezht0s-66" value="predetermined intervals " style="shape=partialRectangle;html=1;whiteSpace=wrap;connectable=0;overflow=hidden;fillColor=none;top=0;left=0;bottom=0;right=0;pointerEvents=1;" parent="tNga97t6l0gy_Rezht0s-65" vertex="1">
          <mxGeometry width="150" height="40" as="geometry" />
        </mxCell>
        <mxCell id="tNga97t6l0gy_Rezht0s-67" value="" style="shape=table;startSize=0;container=1;collapsible=0;childLayout=tableLayout;" parent="1" vertex="1">
          <mxGeometry x="1210" y="290" width="140" height="40" as="geometry" />
        </mxCell>
        <mxCell id="tNga97t6l0gy_Rezht0s-68" value="" style="shape=partialRectangle;collapsible=0;dropTarget=0;pointerEvents=0;fillColor=none;top=0;left=0;bottom=0;right=0;points=[[0,0.5],[1,0.5]];portConstraint=eastwest;" parent="tNga97t6l0gy_Rezht0s-67" vertex="1">
          <mxGeometry width="140" height="40" as="geometry" />
        </mxCell>
        <mxCell id="tNga97t6l0gy_Rezht0s-69" value="prescribed criteria" style="shape=partialRectangle;html=1;whiteSpace=wrap;connectable=0;overflow=hidden;fillColor=none;top=0;left=0;bottom=0;right=0;pointerEvents=1;" parent="tNga97t6l0gy_Rezht0s-68" vertex="1">
          <mxGeometry width="140" height="40" as="geometry" />
        </mxCell>
        <mxCell id="tNga97t6l0gy_Rezht0s-70" value="" style="shape=table;startSize=0;container=1;collapsible=0;childLayout=tableLayout;" parent="1" vertex="1">
          <mxGeometry x="1350" y="290" width="140" height="40" as="geometry" />
        </mxCell>
        <mxCell id="tNga97t6l0gy_Rezht0s-71" value="" style="shape=partialRectangle;collapsible=0;dropTarget=0;pointerEvents=0;fillColor=none;top=0;left=0;bottom=0;right=0;points=[[0,0.5],[1,0.5]];portConstraint=eastwest;" parent="tNga97t6l0gy_Rezht0s-70" vertex="1">
          <mxGeometry width="140" height="40" as="geometry" />
        </mxCell>
        <mxCell id="tNga97t6l0gy_Rezht0s-72" value="periodic test activities " style="shape=partialRectangle;html=1;whiteSpace=wrap;connectable=0;overflow=hidden;fillColor=none;top=0;left=0;bottom=0;right=0;pointerEvents=1;" parent="tNga97t6l0gy_Rezht0s-71" vertex="1">
          <mxGeometry width="140" height="40" as="geometry" />
        </mxCell>
        <mxCell id="55lCiBzu7AwO6zrquqo8-1" value="" style="shape=table;startSize=0;container=1;collapsible=0;childLayout=tableLayout;" parent="1" vertex="1">
          <mxGeometry x="110" y="330" width="260" height="110" as="geometry" />
        </mxCell>
        <mxCell id="55lCiBzu7AwO6zrquqo8-2" value="" style="shape=partialRectangle;collapsible=0;dropTarget=0;pointerEvents=0;fillColor=none;top=0;left=0;bottom=0;right=0;points=[[0,0.5],[1,0.5]];portConstraint=eastwest;" parent="55lCiBzu7AwO6zrquqo8-1" vertex="1">
          <mxGeometry width="260" height="110" as="geometry" />
        </mxCell>
        <mxCell id="55lCiBzu7AwO6zrquqo8-3" value="" style="shape=partialRectangle;html=1;whiteSpace=wrap;connectable=0;overflow=hidden;fillColor=none;top=0;left=0;bottom=0;right=0;pointerEvents=1;" parent="55lCiBzu7AwO6zrquqo8-2" vertex="1">
          <mxGeometry width="260" height="110" as="geometry" />
        </mxCell>
        <mxCell id="55lCiBzu7AwO6zrquqo8-7" value="" style="shape=table;startSize=0;container=1;collapsible=0;childLayout=tableLayout;" parent="1" vertex="1">
          <mxGeometry x="370" y="330" width="150" height="110" as="geometry" />
        </mxCell>
        <mxCell id="55lCiBzu7AwO6zrquqo8-8" value="" style="shape=partialRectangle;collapsible=0;dropTarget=0;pointerEvents=0;fillColor=none;top=0;left=0;bottom=0;right=0;points=[[0,0.5],[1,0.5]];portConstraint=eastwest;" parent="55lCiBzu7AwO6zrquqo8-7" vertex="1">
          <mxGeometry width="150" height="110" as="geometry" />
        </mxCell>
        <mxCell id="55lCiBzu7AwO6zrquqo8-9" value="" style="shape=partialRectangle;html=1;whiteSpace=wrap;connectable=0;overflow=hidden;fillColor=none;top=0;left=0;bottom=0;right=0;pointerEvents=1;" parent="55lCiBzu7AwO6zrquqo8-8" vertex="1">
          <mxGeometry width="150" height="110" as="geometry" />
        </mxCell>
        <mxCell id="55lCiBzu7AwO6zrquqo8-10" value="" style="shape=table;startSize=0;container=1;collapsible=0;childLayout=tableLayout;" parent="1" vertex="1">
          <mxGeometry x="520" y="330" width="140" height="110" as="geometry" />
        </mxCell>
        <mxCell id="55lCiBzu7AwO6zrquqo8-11" value="" style="shape=partialRectangle;collapsible=0;dropTarget=0;pointerEvents=0;fillColor=none;top=0;left=0;bottom=0;right=0;points=[[0,0.5],[1,0.5]];portConstraint=eastwest;" parent="55lCiBzu7AwO6zrquqo8-10" vertex="1">
          <mxGeometry width="140" height="110" as="geometry" />
        </mxCell>
        <mxCell id="55lCiBzu7AwO6zrquqo8-12" value="" style="shape=partialRectangle;html=1;whiteSpace=wrap;connectable=0;overflow=hidden;fillColor=none;top=0;left=0;bottom=0;right=0;pointerEvents=1;" parent="55lCiBzu7AwO6zrquqo8-11" vertex="1">
          <mxGeometry width="140" height="110" as="geometry" />
        </mxCell>
        <mxCell id="55lCiBzu7AwO6zrquqo8-13" value="" style="shape=table;startSize=0;container=1;collapsible=0;childLayout=tableLayout;" parent="1" vertex="1">
          <mxGeometry x="660" y="330" width="140" height="110" as="geometry" />
        </mxCell>
        <mxCell id="55lCiBzu7AwO6zrquqo8-14" value="" style="shape=partialRectangle;collapsible=0;dropTarget=0;pointerEvents=0;fillColor=none;top=0;left=0;bottom=0;right=0;points=[[0,0.5],[1,0.5]];portConstraint=eastwest;" parent="55lCiBzu7AwO6zrquqo8-13" vertex="1">
          <mxGeometry width="140" height="110" as="geometry" />
        </mxCell>
        <mxCell id="55lCiBzu7AwO6zrquqo8-15" value="" style="shape=partialRectangle;html=1;whiteSpace=wrap;connectable=0;overflow=hidden;fillColor=none;top=0;left=0;bottom=0;right=0;pointerEvents=1;" parent="55lCiBzu7AwO6zrquqo8-14" vertex="1">
          <mxGeometry width="140" height="110" as="geometry" />
        </mxCell>
        <mxCell id="55lCiBzu7AwO6zrquqo8-16" value="" style="shape=table;startSize=0;container=1;collapsible=0;childLayout=tableLayout;" parent="1" vertex="1">
          <mxGeometry x="800" y="330" width="260" height="110" as="geometry" />
        </mxCell>
        <mxCell id="55lCiBzu7AwO6zrquqo8-17" value="" style="shape=partialRectangle;collapsible=0;dropTarget=0;pointerEvents=0;fillColor=none;top=0;left=0;bottom=0;right=0;points=[[0,0.5],[1,0.5]];portConstraint=eastwest;" parent="55lCiBzu7AwO6zrquqo8-16" vertex="1">
          <mxGeometry width="260" height="110" as="geometry" />
        </mxCell>
        <mxCell id="55lCiBzu7AwO6zrquqo8-18" value="" style="shape=partialRectangle;html=1;whiteSpace=wrap;connectable=0;overflow=hidden;fillColor=none;top=0;left=0;bottom=0;right=0;pointerEvents=1;" parent="55lCiBzu7AwO6zrquqo8-17" vertex="1">
          <mxGeometry width="260" height="110" as="geometry" />
        </mxCell>
        <mxCell id="55lCiBzu7AwO6zrquqo8-19" value="" style="shape=table;startSize=0;container=1;collapsible=0;childLayout=tableLayout;" parent="1" vertex="1">
          <mxGeometry x="1060" y="330" width="150" height="110" as="geometry" />
        </mxCell>
        <mxCell id="55lCiBzu7AwO6zrquqo8-20" value="" style="shape=partialRectangle;collapsible=0;dropTarget=0;pointerEvents=0;fillColor=none;top=0;left=0;bottom=0;right=0;points=[[0,0.5],[1,0.5]];portConstraint=eastwest;" parent="55lCiBzu7AwO6zrquqo8-19" vertex="1">
          <mxGeometry width="150" height="110" as="geometry" />
        </mxCell>
        <mxCell id="55lCiBzu7AwO6zrquqo8-21" value="" style="shape=partialRectangle;html=1;whiteSpace=wrap;connectable=0;overflow=hidden;fillColor=none;top=0;left=0;bottom=0;right=0;pointerEvents=1;" parent="55lCiBzu7AwO6zrquqo8-20" vertex="1">
          <mxGeometry width="150" height="110" as="geometry" />
        </mxCell>
        <mxCell id="55lCiBzu7AwO6zrquqo8-22" value="" style="shape=table;startSize=0;container=1;collapsible=0;childLayout=tableLayout;" parent="1" vertex="1">
          <mxGeometry x="1210" y="330" width="140" height="110" as="geometry" />
        </mxCell>
        <mxCell id="55lCiBzu7AwO6zrquqo8-23" value="" style="shape=partialRectangle;collapsible=0;dropTarget=0;pointerEvents=0;fillColor=none;top=0;left=0;bottom=0;right=0;points=[[0,0.5],[1,0.5]];portConstraint=eastwest;" parent="55lCiBzu7AwO6zrquqo8-22" vertex="1">
          <mxGeometry width="140" height="110" as="geometry" />
        </mxCell>
        <mxCell id="55lCiBzu7AwO6zrquqo8-24" value="" style="shape=partialRectangle;html=1;whiteSpace=wrap;connectable=0;overflow=hidden;fillColor=none;top=0;left=0;bottom=0;right=0;pointerEvents=1;" parent="55lCiBzu7AwO6zrquqo8-23" vertex="1">
          <mxGeometry width="140" height="110" as="geometry" />
        </mxCell>
        <mxCell id="55lCiBzu7AwO6zrquqo8-25" value="" style="shape=table;startSize=0;container=1;collapsible=0;childLayout=tableLayout;" parent="1" vertex="1">
          <mxGeometry x="1350" y="330" width="140" height="110" as="geometry" />
        </mxCell>
        <mxCell id="55lCiBzu7AwO6zrquqo8-26" value="" style="shape=partialRectangle;collapsible=0;dropTarget=0;pointerEvents=0;fillColor=none;top=0;left=0;bottom=0;right=0;points=[[0,0.5],[1,0.5]];portConstraint=eastwest;" parent="55lCiBzu7AwO6zrquqo8-25" vertex="1">
          <mxGeometry width="140" height="110" as="geometry" />
        </mxCell>
        <mxCell id="55lCiBzu7AwO6zrquqo8-27" value="" style="shape=partialRectangle;html=1;whiteSpace=wrap;connectable=0;overflow=hidden;fillColor=none;top=0;left=0;bottom=0;right=0;pointerEvents=1;" parent="55lCiBzu7AwO6zrquqo8-26" vertex="1">
          <mxGeometry width="140" height="110" as="geometry" />
        </mxCell>
        <mxCell id="55lCiBzu7AwO6zrquqo8-28" value="" style="shape=table;startSize=0;container=1;collapsible=0;childLayout=tableLayout;" parent="1" vertex="1">
          <mxGeometry x="1490" y="250" width="260" height="80" as="geometry" />
        </mxCell>
        <mxCell id="55lCiBzu7AwO6zrquqo8-29" value="" style="shape=partialRectangle;collapsible=0;dropTarget=0;pointerEvents=0;fillColor=none;top=0;left=0;bottom=0;right=0;points=[[0,0.5],[1,0.5]];portConstraint=eastwest;" parent="55lCiBzu7AwO6zrquqo8-28" vertex="1">
          <mxGeometry width="260" height="80" as="geometry" />
        </mxCell>
        <mxCell id="55lCiBzu7AwO6zrquqo8-30" value="Regular adjusting machinery if it&#39;s necessary" style="shape=partialRectangle;html=1;whiteSpace=wrap;connectable=0;overflow=hidden;fillColor=none;top=0;left=0;bottom=0;right=0;pointerEvents=1;" parent="55lCiBzu7AwO6zrquqo8-29" vertex="1">
          <mxGeometry width="260" height="80" as="geometry" />
        </mxCell>
        <mxCell id="55lCiBzu7AwO6zrquqo8-31" value="" style="shape=table;startSize=0;container=1;collapsible=0;childLayout=tableLayout;" parent="1" vertex="1">
          <mxGeometry x="1750" y="250" width="430" height="40" as="geometry" />
        </mxCell>
        <mxCell id="55lCiBzu7AwO6zrquqo8-32" value="" style="shape=partialRectangle;collapsible=0;dropTarget=0;pointerEvents=0;fillColor=none;top=0;left=0;bottom=0;right=0;points=[[0,0.5],[1,0.5]];portConstraint=eastwest;" parent="55lCiBzu7AwO6zrquqo8-31" vertex="1">
          <mxGeometry width="430" height="40" as="geometry" />
        </mxCell>
        <mxCell id="55lCiBzu7AwO6zrquqo8-33" value="schedule of regular adjusting machinery" style="shape=partialRectangle;html=1;whiteSpace=wrap;connectable=0;overflow=hidden;fillColor=none;top=0;left=0;bottom=0;right=0;pointerEvents=1;" parent="55lCiBzu7AwO6zrquqo8-32" vertex="1">
          <mxGeometry width="430" height="40" as="geometry" />
        </mxCell>
        <mxCell id="55lCiBzu7AwO6zrquqo8-34" value="" style="shape=table;startSize=0;container=1;collapsible=0;childLayout=tableLayout;" parent="1" vertex="1">
          <mxGeometry x="1750" y="290" width="150" height="40" as="geometry" />
        </mxCell>
        <mxCell id="55lCiBzu7AwO6zrquqo8-35" value="" style="shape=partialRectangle;collapsible=0;dropTarget=0;pointerEvents=0;fillColor=none;top=0;left=0;bottom=0;right=0;points=[[0,0.5],[1,0.5]];portConstraint=eastwest;" parent="55lCiBzu7AwO6zrquqo8-34" vertex="1">
          <mxGeometry width="150" height="40" as="geometry" />
        </mxCell>
        <mxCell id="55lCiBzu7AwO6zrquqo8-36" value="predetermined intervals " style="shape=partialRectangle;html=1;whiteSpace=wrap;connectable=0;overflow=hidden;fillColor=none;top=0;left=0;bottom=0;right=0;pointerEvents=1;" parent="55lCiBzu7AwO6zrquqo8-35" vertex="1">
          <mxGeometry width="150" height="40" as="geometry" />
        </mxCell>
        <mxCell id="55lCiBzu7AwO6zrquqo8-37" value="" style="shape=table;startSize=0;container=1;collapsible=0;childLayout=tableLayout;" parent="1" vertex="1">
          <mxGeometry x="1900" y="290" width="140" height="40" as="geometry" />
        </mxCell>
        <mxCell id="55lCiBzu7AwO6zrquqo8-38" value="" style="shape=partialRectangle;collapsible=0;dropTarget=0;pointerEvents=0;fillColor=none;top=0;left=0;bottom=0;right=0;points=[[0,0.5],[1,0.5]];portConstraint=eastwest;" parent="55lCiBzu7AwO6zrquqo8-37" vertex="1">
          <mxGeometry width="140" height="40" as="geometry" />
        </mxCell>
        <mxCell id="55lCiBzu7AwO6zrquqo8-39" value="prescribed criteria" style="shape=partialRectangle;html=1;whiteSpace=wrap;connectable=0;overflow=hidden;fillColor=none;top=0;left=0;bottom=0;right=0;pointerEvents=1;" parent="55lCiBzu7AwO6zrquqo8-38" vertex="1">
          <mxGeometry width="140" height="40" as="geometry" />
        </mxCell>
        <mxCell id="55lCiBzu7AwO6zrquqo8-40" value="" style="shape=table;startSize=0;container=1;collapsible=0;childLayout=tableLayout;" parent="1" vertex="1">
          <mxGeometry x="2040" y="290" width="140" height="40" as="geometry" />
        </mxCell>
        <mxCell id="55lCiBzu7AwO6zrquqo8-41" value="" style="shape=partialRectangle;collapsible=0;dropTarget=0;pointerEvents=0;fillColor=none;top=0;left=0;bottom=0;right=0;points=[[0,0.5],[1,0.5]];portConstraint=eastwest;" parent="55lCiBzu7AwO6zrquqo8-40" vertex="1">
          <mxGeometry width="140" height="40" as="geometry" />
        </mxCell>
        <mxCell id="55lCiBzu7AwO6zrquqo8-42" value="periodic test activities " style="shape=partialRectangle;html=1;whiteSpace=wrap;connectable=0;overflow=hidden;fillColor=none;top=0;left=0;bottom=0;right=0;pointerEvents=1;" parent="55lCiBzu7AwO6zrquqo8-41" vertex="1">
          <mxGeometry width="140" height="40" as="geometry" />
        </mxCell>
        <mxCell id="55lCiBzu7AwO6zrquqo8-43" value="" style="shape=table;startSize=0;container=1;collapsible=0;childLayout=tableLayout;" parent="1" vertex="1">
          <mxGeometry x="1490" y="330" width="260" height="110" as="geometry" />
        </mxCell>
        <mxCell id="55lCiBzu7AwO6zrquqo8-44" value="" style="shape=partialRectangle;collapsible=0;dropTarget=0;pointerEvents=0;fillColor=none;top=0;left=0;bottom=0;right=0;points=[[0,0.5],[1,0.5]];portConstraint=eastwest;" parent="55lCiBzu7AwO6zrquqo8-43" vertex="1">
          <mxGeometry width="260" height="110" as="geometry" />
        </mxCell>
        <mxCell id="55lCiBzu7AwO6zrquqo8-45" value="" style="shape=partialRectangle;html=1;whiteSpace=wrap;connectable=0;overflow=hidden;fillColor=none;top=0;left=0;bottom=0;right=0;pointerEvents=1;" parent="55lCiBzu7AwO6zrquqo8-44" vertex="1">
          <mxGeometry width="260" height="110" as="geometry" />
        </mxCell>
        <mxCell id="55lCiBzu7AwO6zrquqo8-46" value="" style="shape=table;startSize=0;container=1;collapsible=0;childLayout=tableLayout;" parent="1" vertex="1">
          <mxGeometry x="1750" y="330" width="150" height="110" as="geometry" />
        </mxCell>
        <mxCell id="55lCiBzu7AwO6zrquqo8-47" value="" style="shape=partialRectangle;collapsible=0;dropTarget=0;pointerEvents=0;fillColor=none;top=0;left=0;bottom=0;right=0;points=[[0,0.5],[1,0.5]];portConstraint=eastwest;" parent="55lCiBzu7AwO6zrquqo8-46" vertex="1">
          <mxGeometry width="150" height="110" as="geometry" />
        </mxCell>
        <mxCell id="55lCiBzu7AwO6zrquqo8-48" value="" style="shape=partialRectangle;html=1;whiteSpace=wrap;connectable=0;overflow=hidden;fillColor=none;top=0;left=0;bottom=0;right=0;pointerEvents=1;" parent="55lCiBzu7AwO6zrquqo8-47" vertex="1">
          <mxGeometry width="150" height="110" as="geometry" />
        </mxCell>
        <mxCell id="55lCiBzu7AwO6zrquqo8-49" value="" style="shape=table;startSize=0;container=1;collapsible=0;childLayout=tableLayout;" parent="1" vertex="1">
          <mxGeometry x="1900" y="330" width="140" height="110" as="geometry" />
        </mxCell>
        <mxCell id="55lCiBzu7AwO6zrquqo8-50" value="" style="shape=partialRectangle;collapsible=0;dropTarget=0;pointerEvents=0;fillColor=none;top=0;left=0;bottom=0;right=0;points=[[0,0.5],[1,0.5]];portConstraint=eastwest;" parent="55lCiBzu7AwO6zrquqo8-49" vertex="1">
          <mxGeometry width="140" height="110" as="geometry" />
        </mxCell>
        <mxCell id="55lCiBzu7AwO6zrquqo8-51" value="" style="shape=partialRectangle;html=1;whiteSpace=wrap;connectable=0;overflow=hidden;fillColor=none;top=0;left=0;bottom=0;right=0;pointerEvents=1;" parent="55lCiBzu7AwO6zrquqo8-50" vertex="1">
          <mxGeometry width="140" height="110" as="geometry" />
        </mxCell>
        <mxCell id="55lCiBzu7AwO6zrquqo8-52" value="" style="shape=table;startSize=0;container=1;collapsible=0;childLayout=tableLayout;" parent="1" vertex="1">
          <mxGeometry x="2040" y="330" width="140" height="110" as="geometry" />
        </mxCell>
        <mxCell id="55lCiBzu7AwO6zrquqo8-53" value="" style="shape=partialRectangle;collapsible=0;dropTarget=0;pointerEvents=0;fillColor=none;top=0;left=0;bottom=0;right=0;points=[[0,0.5],[1,0.5]];portConstraint=eastwest;" parent="55lCiBzu7AwO6zrquqo8-52" vertex="1">
          <mxGeometry width="140" height="110" as="geometry" />
        </mxCell>
        <mxCell id="55lCiBzu7AwO6zrquqo8-54" value="" style="shape=partialRectangle;html=1;whiteSpace=wrap;connectable=0;overflow=hidden;fillColor=none;top=0;left=0;bottom=0;right=0;pointerEvents=1;" parent="55lCiBzu7AwO6zrquqo8-53" vertex="1">
          <mxGeometry width="140" height="110" as="geometry" />
        </mxCell>
        <mxCell id="55lCiBzu7AwO6zrquqo8-55" value="" style="shape=table;startSize=0;container=1;collapsible=0;childLayout=tableLayout;" parent="1" vertex="1">
          <mxGeometry x="110" y="440" width="260" height="110" as="geometry" />
        </mxCell>
        <mxCell id="55lCiBzu7AwO6zrquqo8-56" value="" style="shape=partialRectangle;collapsible=0;dropTarget=0;pointerEvents=0;fillColor=none;top=0;left=0;bottom=0;right=0;points=[[0,0.5],[1,0.5]];portConstraint=eastwest;" parent="55lCiBzu7AwO6zrquqo8-55" vertex="1">
          <mxGeometry width="260" height="110" as="geometry" />
        </mxCell>
        <mxCell id="55lCiBzu7AwO6zrquqo8-57" value="" style="shape=partialRectangle;html=1;whiteSpace=wrap;connectable=0;overflow=hidden;fillColor=none;top=0;left=0;bottom=0;right=0;pointerEvents=1;" parent="55lCiBzu7AwO6zrquqo8-56" vertex="1">
          <mxGeometry width="260" height="110" as="geometry" />
        </mxCell>
        <mxCell id="55lCiBzu7AwO6zrquqo8-58" value="" style="shape=table;startSize=0;container=1;collapsible=0;childLayout=tableLayout;" parent="1" vertex="1">
          <mxGeometry x="370" y="440" width="150" height="110" as="geometry" />
        </mxCell>
        <mxCell id="55lCiBzu7AwO6zrquqo8-59" value="" style="shape=partialRectangle;collapsible=0;dropTarget=0;pointerEvents=0;fillColor=none;top=0;left=0;bottom=0;right=0;points=[[0,0.5],[1,0.5]];portConstraint=eastwest;" parent="55lCiBzu7AwO6zrquqo8-58" vertex="1">
          <mxGeometry width="150" height="110" as="geometry" />
        </mxCell>
        <mxCell id="55lCiBzu7AwO6zrquqo8-60" value="" style="shape=partialRectangle;html=1;whiteSpace=wrap;connectable=0;overflow=hidden;fillColor=none;top=0;left=0;bottom=0;right=0;pointerEvents=1;" parent="55lCiBzu7AwO6zrquqo8-59" vertex="1">
          <mxGeometry width="150" height="110" as="geometry" />
        </mxCell>
        <mxCell id="55lCiBzu7AwO6zrquqo8-61" value="" style="shape=table;startSize=0;container=1;collapsible=0;childLayout=tableLayout;" parent="1" vertex="1">
          <mxGeometry x="520" y="440" width="140" height="110" as="geometry" />
        </mxCell>
        <mxCell id="55lCiBzu7AwO6zrquqo8-62" value="" style="shape=partialRectangle;collapsible=0;dropTarget=0;pointerEvents=0;fillColor=none;top=0;left=0;bottom=0;right=0;points=[[0,0.5],[1,0.5]];portConstraint=eastwest;" parent="55lCiBzu7AwO6zrquqo8-61" vertex="1">
          <mxGeometry width="140" height="110" as="geometry" />
        </mxCell>
        <mxCell id="55lCiBzu7AwO6zrquqo8-63" value="" style="shape=partialRectangle;html=1;whiteSpace=wrap;connectable=0;overflow=hidden;fillColor=none;top=0;left=0;bottom=0;right=0;pointerEvents=1;" parent="55lCiBzu7AwO6zrquqo8-62" vertex="1">
          <mxGeometry width="140" height="110" as="geometry" />
        </mxCell>
        <mxCell id="55lCiBzu7AwO6zrquqo8-64" value="" style="shape=table;startSize=0;container=1;collapsible=0;childLayout=tableLayout;" parent="1" vertex="1">
          <mxGeometry x="660" y="440" width="140" height="110" as="geometry" />
        </mxCell>
        <mxCell id="55lCiBzu7AwO6zrquqo8-65" value="" style="shape=partialRectangle;collapsible=0;dropTarget=0;pointerEvents=0;fillColor=none;top=0;left=0;bottom=0;right=0;points=[[0,0.5],[1,0.5]];portConstraint=eastwest;" parent="55lCiBzu7AwO6zrquqo8-64" vertex="1">
          <mxGeometry width="140" height="110" as="geometry" />
        </mxCell>
        <mxCell id="55lCiBzu7AwO6zrquqo8-66" value="" style="shape=partialRectangle;html=1;whiteSpace=wrap;connectable=0;overflow=hidden;fillColor=none;top=0;left=0;bottom=0;right=0;pointerEvents=1;" parent="55lCiBzu7AwO6zrquqo8-65" vertex="1">
          <mxGeometry width="140" height="110" as="geometry" />
        </mxCell>
        <mxCell id="55lCiBzu7AwO6zrquqo8-67" value="" style="shape=table;startSize=0;container=1;collapsible=0;childLayout=tableLayout;" parent="1" vertex="1">
          <mxGeometry x="800" y="440" width="260" height="110" as="geometry" />
        </mxCell>
        <mxCell id="55lCiBzu7AwO6zrquqo8-68" value="" style="shape=partialRectangle;collapsible=0;dropTarget=0;pointerEvents=0;fillColor=none;top=0;left=0;bottom=0;right=0;points=[[0,0.5],[1,0.5]];portConstraint=eastwest;" parent="55lCiBzu7AwO6zrquqo8-67" vertex="1">
          <mxGeometry width="260" height="110" as="geometry" />
        </mxCell>
        <mxCell id="55lCiBzu7AwO6zrquqo8-69" value="" style="shape=partialRectangle;html=1;whiteSpace=wrap;connectable=0;overflow=hidden;fillColor=none;top=0;left=0;bottom=0;right=0;pointerEvents=1;" parent="55lCiBzu7AwO6zrquqo8-68" vertex="1">
          <mxGeometry width="260" height="110" as="geometry" />
        </mxCell>
        <mxCell id="55lCiBzu7AwO6zrquqo8-70" value="" style="shape=table;startSize=0;container=1;collapsible=0;childLayout=tableLayout;" parent="1" vertex="1">
          <mxGeometry x="1060" y="440" width="150" height="110" as="geometry" />
        </mxCell>
        <mxCell id="55lCiBzu7AwO6zrquqo8-71" value="" style="shape=partialRectangle;collapsible=0;dropTarget=0;pointerEvents=0;fillColor=none;top=0;left=0;bottom=0;right=0;points=[[0,0.5],[1,0.5]];portConstraint=eastwest;" parent="55lCiBzu7AwO6zrquqo8-70" vertex="1">
          <mxGeometry width="150" height="110" as="geometry" />
        </mxCell>
        <mxCell id="55lCiBzu7AwO6zrquqo8-72" value="" style="shape=partialRectangle;html=1;whiteSpace=wrap;connectable=0;overflow=hidden;fillColor=none;top=0;left=0;bottom=0;right=0;pointerEvents=1;" parent="55lCiBzu7AwO6zrquqo8-71" vertex="1">
          <mxGeometry width="150" height="110" as="geometry" />
        </mxCell>
        <mxCell id="55lCiBzu7AwO6zrquqo8-73" value="" style="shape=table;startSize=0;container=1;collapsible=0;childLayout=tableLayout;" parent="1" vertex="1">
          <mxGeometry x="1210" y="440" width="140" height="110" as="geometry" />
        </mxCell>
        <mxCell id="55lCiBzu7AwO6zrquqo8-74" value="" style="shape=partialRectangle;collapsible=0;dropTarget=0;pointerEvents=0;fillColor=none;top=0;left=0;bottom=0;right=0;points=[[0,0.5],[1,0.5]];portConstraint=eastwest;" parent="55lCiBzu7AwO6zrquqo8-73" vertex="1">
          <mxGeometry width="140" height="110" as="geometry" />
        </mxCell>
        <mxCell id="55lCiBzu7AwO6zrquqo8-75" value="" style="shape=partialRectangle;html=1;whiteSpace=wrap;connectable=0;overflow=hidden;fillColor=none;top=0;left=0;bottom=0;right=0;pointerEvents=1;" parent="55lCiBzu7AwO6zrquqo8-74" vertex="1">
          <mxGeometry width="140" height="110" as="geometry" />
        </mxCell>
        <mxCell id="55lCiBzu7AwO6zrquqo8-76" value="" style="shape=table;startSize=0;container=1;collapsible=0;childLayout=tableLayout;" parent="1" vertex="1">
          <mxGeometry x="1350" y="440" width="140" height="110" as="geometry" />
        </mxCell>
        <mxCell id="55lCiBzu7AwO6zrquqo8-77" value="" style="shape=partialRectangle;collapsible=0;dropTarget=0;pointerEvents=0;fillColor=none;top=0;left=0;bottom=0;right=0;points=[[0,0.5],[1,0.5]];portConstraint=eastwest;" parent="55lCiBzu7AwO6zrquqo8-76" vertex="1">
          <mxGeometry width="140" height="110" as="geometry" />
        </mxCell>
        <mxCell id="55lCiBzu7AwO6zrquqo8-78" value="" style="shape=partialRectangle;html=1;whiteSpace=wrap;connectable=0;overflow=hidden;fillColor=none;top=0;left=0;bottom=0;right=0;pointerEvents=1;" parent="55lCiBzu7AwO6zrquqo8-77" vertex="1">
          <mxGeometry width="140" height="110" as="geometry" />
        </mxCell>
        <mxCell id="55lCiBzu7AwO6zrquqo8-79" value="" style="shape=table;startSize=0;container=1;collapsible=0;childLayout=tableLayout;" parent="1" vertex="1">
          <mxGeometry x="1490" y="440" width="260" height="110" as="geometry" />
        </mxCell>
        <mxCell id="55lCiBzu7AwO6zrquqo8-80" value="" style="shape=partialRectangle;collapsible=0;dropTarget=0;pointerEvents=0;fillColor=none;top=0;left=0;bottom=0;right=0;points=[[0,0.5],[1,0.5]];portConstraint=eastwest;" parent="55lCiBzu7AwO6zrquqo8-79" vertex="1">
          <mxGeometry width="260" height="110" as="geometry" />
        </mxCell>
        <mxCell id="55lCiBzu7AwO6zrquqo8-81" value="" style="shape=partialRectangle;html=1;whiteSpace=wrap;connectable=0;overflow=hidden;fillColor=none;top=0;left=0;bottom=0;right=0;pointerEvents=1;" parent="55lCiBzu7AwO6zrquqo8-80" vertex="1">
          <mxGeometry width="260" height="110" as="geometry" />
        </mxCell>
        <mxCell id="55lCiBzu7AwO6zrquqo8-82" value="" style="shape=table;startSize=0;container=1;collapsible=0;childLayout=tableLayout;" parent="1" vertex="1">
          <mxGeometry x="1750" y="440" width="150" height="110" as="geometry" />
        </mxCell>
        <mxCell id="55lCiBzu7AwO6zrquqo8-83" value="" style="shape=partialRectangle;collapsible=0;dropTarget=0;pointerEvents=0;fillColor=none;top=0;left=0;bottom=0;right=0;points=[[0,0.5],[1,0.5]];portConstraint=eastwest;" parent="55lCiBzu7AwO6zrquqo8-82" vertex="1">
          <mxGeometry width="150" height="110" as="geometry" />
        </mxCell>
        <mxCell id="55lCiBzu7AwO6zrquqo8-84" value="" style="shape=partialRectangle;html=1;whiteSpace=wrap;connectable=0;overflow=hidden;fillColor=none;top=0;left=0;bottom=0;right=0;pointerEvents=1;" parent="55lCiBzu7AwO6zrquqo8-83" vertex="1">
          <mxGeometry width="150" height="110" as="geometry" />
        </mxCell>
        <mxCell id="55lCiBzu7AwO6zrquqo8-85" value="" style="shape=table;startSize=0;container=1;collapsible=0;childLayout=tableLayout;" parent="1" vertex="1">
          <mxGeometry x="1900" y="440" width="140" height="110" as="geometry" />
        </mxCell>
        <mxCell id="55lCiBzu7AwO6zrquqo8-86" value="" style="shape=partialRectangle;collapsible=0;dropTarget=0;pointerEvents=0;fillColor=none;top=0;left=0;bottom=0;right=0;points=[[0,0.5],[1,0.5]];portConstraint=eastwest;" parent="55lCiBzu7AwO6zrquqo8-85" vertex="1">
          <mxGeometry width="140" height="110" as="geometry" />
        </mxCell>
        <mxCell id="55lCiBzu7AwO6zrquqo8-87" value="" style="shape=partialRectangle;html=1;whiteSpace=wrap;connectable=0;overflow=hidden;fillColor=none;top=0;left=0;bottom=0;right=0;pointerEvents=1;" parent="55lCiBzu7AwO6zrquqo8-86" vertex="1">
          <mxGeometry width="140" height="110" as="geometry" />
        </mxCell>
        <mxCell id="55lCiBzu7AwO6zrquqo8-88" value="" style="shape=table;startSize=0;container=1;collapsible=0;childLayout=tableLayout;" parent="1" vertex="1">
          <mxGeometry x="2040" y="440" width="140" height="110" as="geometry" />
        </mxCell>
        <mxCell id="55lCiBzu7AwO6zrquqo8-89" value="" style="shape=partialRectangle;collapsible=0;dropTarget=0;pointerEvents=0;fillColor=none;top=0;left=0;bottom=0;right=0;points=[[0,0.5],[1,0.5]];portConstraint=eastwest;" parent="55lCiBzu7AwO6zrquqo8-88" vertex="1">
          <mxGeometry width="140" height="110" as="geometry" />
        </mxCell>
        <mxCell id="55lCiBzu7AwO6zrquqo8-90" value="" style="shape=partialRectangle;html=1;whiteSpace=wrap;connectable=0;overflow=hidden;fillColor=none;top=0;left=0;bottom=0;right=0;pointerEvents=1;" parent="55lCiBzu7AwO6zrquqo8-89" vertex="1">
          <mxGeometry width="140" height="110" as="geometry" />
        </mxCell>
        <mxCell id="YR9fczvX4WcTQ2nuUR1Q-2" value="" style="shape=table;startSize=0;container=1;collapsible=0;childLayout=tableLayout;" parent="1" vertex="1">
          <mxGeometry x="2180" y="250" width="260" height="80" as="geometry" />
        </mxCell>
        <mxCell id="YR9fczvX4WcTQ2nuUR1Q-3" value="" style="shape=partialRectangle;collapsible=0;dropTarget=0;pointerEvents=0;fillColor=none;top=0;left=0;bottom=0;right=0;points=[[0,0.5],[1,0.5]];portConstraint=eastwest;" parent="YR9fczvX4WcTQ2nuUR1Q-2" vertex="1">
          <mxGeometry width="260" height="80" as="geometry" />
        </mxCell>
        <mxCell id="YR9fczvX4WcTQ2nuUR1Q-4" value="Maintenance tools" style="shape=partialRectangle;html=1;whiteSpace=wrap;connectable=0;overflow=hidden;fillColor=none;top=0;left=0;bottom=0;right=0;pointerEvents=1;" parent="YR9fczvX4WcTQ2nuUR1Q-3" vertex="1">
          <mxGeometry width="260" height="80" as="geometry" />
        </mxCell>
        <mxCell id="YR9fczvX4WcTQ2nuUR1Q-8" value="" style="shape=table;startSize=0;container=1;collapsible=0;childLayout=tableLayout;" parent="1" vertex="1">
          <mxGeometry x="2180" y="330" width="260" height="110" as="geometry" />
        </mxCell>
        <mxCell id="YR9fczvX4WcTQ2nuUR1Q-9" value="" style="shape=partialRectangle;collapsible=0;dropTarget=0;pointerEvents=0;fillColor=none;top=0;left=0;bottom=0;right=0;points=[[0,0.5],[1,0.5]];portConstraint=eastwest;" parent="YR9fczvX4WcTQ2nuUR1Q-8" vertex="1">
          <mxGeometry width="260" height="110" as="geometry" />
        </mxCell>
        <mxCell id="YR9fczvX4WcTQ2nuUR1Q-10" value="" style="shape=partialRectangle;html=1;whiteSpace=wrap;connectable=0;overflow=hidden;fillColor=none;top=0;left=0;bottom=0;right=0;pointerEvents=1;" parent="YR9fczvX4WcTQ2nuUR1Q-9" vertex="1">
          <mxGeometry width="260" height="110" as="geometry" />
        </mxCell>
        <mxCell id="YR9fczvX4WcTQ2nuUR1Q-11" value="" style="shape=table;startSize=0;container=1;collapsible=0;childLayout=tableLayout;" parent="1" vertex="1">
          <mxGeometry x="2180" y="440" width="260" height="110" as="geometry" />
        </mxCell>
        <mxCell id="YR9fczvX4WcTQ2nuUR1Q-12" value="" style="shape=partialRectangle;collapsible=0;dropTarget=0;pointerEvents=0;fillColor=none;top=0;left=0;bottom=0;right=0;points=[[0,0.5],[1,0.5]];portConstraint=eastwest;" parent="YR9fczvX4WcTQ2nuUR1Q-11" vertex="1">
          <mxGeometry width="260" height="110" as="geometry" />
        </mxCell>
        <mxCell id="YR9fczvX4WcTQ2nuUR1Q-13" value="" style="shape=partialRectangle;html=1;whiteSpace=wrap;connectable=0;overflow=hidden;fillColor=none;top=0;left=0;bottom=0;right=0;pointerEvents=1;" parent="YR9fczvX4WcTQ2nuUR1Q-12" vertex="1">
          <mxGeometry width="260" height="110" as="geometry" />
        </mxCell>
        <mxCell id="YR9fczvX4WcTQ2nuUR1Q-15" value="" style="shape=table;startSize=0;container=1;collapsible=0;childLayout=tableLayout;" parent="1" vertex="1">
          <mxGeometry x="2440" y="330" width="260" height="110" as="geometry" />
        </mxCell>
        <mxCell id="YR9fczvX4WcTQ2nuUR1Q-16" value="" style="shape=partialRectangle;collapsible=0;dropTarget=0;pointerEvents=0;fillColor=none;top=0;left=0;bottom=0;right=0;points=[[0,0.5],[1,0.5]];portConstraint=eastwest;" parent="YR9fczvX4WcTQ2nuUR1Q-15" vertex="1">
          <mxGeometry width="260" height="110" as="geometry" />
        </mxCell>
        <mxCell id="YR9fczvX4WcTQ2nuUR1Q-17" value="" style="shape=partialRectangle;html=1;whiteSpace=wrap;connectable=0;overflow=hidden;fillColor=none;top=0;left=0;bottom=0;right=0;pointerEvents=1;" parent="YR9fczvX4WcTQ2nuUR1Q-16" vertex="1">
          <mxGeometry width="260" height="110" as="geometry" />
        </mxCell>
        <mxCell id="YR9fczvX4WcTQ2nuUR1Q-18" value="" style="shape=table;startSize=0;container=1;collapsible=0;childLayout=tableLayout;" parent="1" vertex="1">
          <mxGeometry x="2440" y="440" width="260" height="110" as="geometry" />
        </mxCell>
        <mxCell id="YR9fczvX4WcTQ2nuUR1Q-19" value="" style="shape=partialRectangle;collapsible=0;dropTarget=0;pointerEvents=0;fillColor=none;top=0;left=0;bottom=0;right=0;points=[[0,0.5],[1,0.5]];portConstraint=eastwest;" parent="YR9fczvX4WcTQ2nuUR1Q-18" vertex="1">
          <mxGeometry width="260" height="110" as="geometry" />
        </mxCell>
        <mxCell id="YR9fczvX4WcTQ2nuUR1Q-20" value="" style="shape=partialRectangle;html=1;whiteSpace=wrap;connectable=0;overflow=hidden;fillColor=none;top=0;left=0;bottom=0;right=0;pointerEvents=1;" parent="YR9fczvX4WcTQ2nuUR1Q-19" vertex="1">
          <mxGeometry width="260" height="110" as="geometry" />
        </mxCell>
        <mxCell id="YR9fczvX4WcTQ2nuUR1Q-21" value="" style="shape=table;startSize=0;container=1;collapsible=0;childLayout=tableLayout;" parent="1" vertex="1">
          <mxGeometry x="2440" y="250" width="260" height="80" as="geometry" />
        </mxCell>
        <mxCell id="YR9fczvX4WcTQ2nuUR1Q-22" value="" style="shape=partialRectangle;collapsible=0;dropTarget=0;pointerEvents=0;fillColor=none;top=0;left=0;bottom=0;right=0;points=[[0,0.5],[1,0.5]];portConstraint=eastwest;" parent="YR9fczvX4WcTQ2nuUR1Q-21" vertex="1">
          <mxGeometry width="260" height="80" as="geometry" />
        </mxCell>
        <mxCell id="YR9fczvX4WcTQ2nuUR1Q-23" value="Image of maintenance tools" style="shape=partialRectangle;html=1;whiteSpace=wrap;connectable=0;overflow=hidden;fillColor=none;top=0;left=0;bottom=0;right=0;pointerEvents=1;" parent="YR9fczvX4WcTQ2nuUR1Q-22" vertex="1">
          <mxGeometry width="260" height="80" as="geometry" />
        </mxCell>
      </root>
    </mxGraphModel>
  </diagram>
</mxfile>
